<svg xmlns="http://www.w3.org/2000/svg" xmlns:xlink="http://www.w3.org/1999/xlink" xmlns:lucid="lucid" width="2121" height="2522"><g transform="translate(101 581)" lucid:page-tab-id="0_0"><path d="M-500-1000h2500v3000H-500z" fill="#fff"/><path d="M640-554a6 6 0 0 1 6-6h628a6 6 0 0 1 6 6V-6a6 6 0 0 1-6 6H646a6 6 0 0 1-6-6z" stroke="#282c33" stroke-width="2" fill="#1071e5"/><use xlink:href="#a" transform="matrix(1,0,0,1,652,-548) translate(276.51851851851853 26.666666666666657)"/><path d="M680-494a6 6 0 0 1 6-6h548a6 6 0 0 1 6 6v468a6 6 0 0 1-6 6H686a6 6 0 0 1-6-6z" stroke="#282c33" stroke-width="2" fill="#008a0e"/><use xlink:href="#b" transform="matrix(1,0,0,1,692,-488) translate(145.87037037037044 26.666666666666657)"/><use xlink:href="#c" transform="matrix(1,0,0,1,692,-488) translate(255.03703703703707 26.666666666666657)"/><path d="M710-434a6 6 0 0 1 6-6h488a6 6 0 0 1 6 6v380a6 6 0 0 1-6 6H716a6 6 0 0 1-6-6z" stroke="#282c33" stroke-width="2" fill="#ffdda6"/><use xlink:href="#d" transform="matrix(1,0,0,1,722,-428) translate(163.2777777777778 193.41666666666666)"/><path d="M1359 86a6 6 0 0 1 6-6h628a6 6 0 0 1 6 6v548a6 6 0 0 1-6 6h-628a6 6 0 0 1-6-6z" stroke="#282c33" stroke-width="2" fill="#1071e5"/><use xlink:href="#a" transform="matrix(1,0,0,1,1371.00005,92) translate(276.51851851851853 26.666666666666657)"/><path d="M1399 146a6 6 0 0 1 6-6h548a6 6 0 0 1 6 6v468a6 6 0 0 1-6 6h-548a6 6 0 0 1-6-6z" stroke="#282c33" stroke-width="2" fill="#008a0e"/><use xlink:href="#b" transform="matrix(1,0,0,1,1411.00005,152) translate(145.87037037037044 26.666666666666657)"/><use xlink:href="#c" transform="matrix(1,0,0,1,1411.00005,152) translate(255.03703703703707 26.666666666666657)"/><path d="M1429 206a6 6 0 0 1 6-6h488a6 6 0 0 1 6 6v268a6 6 0 0 1-6 6h-488a6 6 0 0 1-6-6z" stroke="#282c33" stroke-width="2" fill="#ffdda6"/><use xlink:href="#e" transform="matrix(1,0,0,1,1441.00005,212) translate(78.09259259259264 138.66666666666666)"/><path d="M1429 506a6 6 0 0 1 6-6h488a6 6 0 0 1 6 6v88a6 6 0 0 1-6 6h-488a6 6 0 0 1-6-6z" stroke="#282c33" stroke-width="2" fill="#c3f7c8"/><use xlink:href="#f" transform="matrix(1,0,0,1,1441.00005,512) translate(189.94444444444446 45.66666666666666)"/><path d="M-80 86a6 6 0 0 1 6-6h628a6 6 0 0 1 6 6v548a6 6 0 0 1-6 6H-74a6 6 0 0 1-6-6z" stroke="#282c33" stroke-width="2" fill="#1071e5"/><use xlink:href="#a" transform="matrix(1,0,0,1,-68,92) translate(276.51851851851853 26.666666666666657)"/><path d="M-40 146a6 6 0 0 1 6-6h548a6 6 0 0 1 6 6v468a6 6 0 0 1-6 6H-34a6 6 0 0 1-6-6z" stroke="#282c33" stroke-width="2" fill="#008a0e"/><use xlink:href="#b" transform="matrix(1,0,0,1,-28,152) translate(145.87037037037044 26.666666666666657)"/><use xlink:href="#c" transform="matrix(1,0,0,1,-28,152) translate(255.03703703703707 26.666666666666657)"/><path d="M-10 206a6 6 0 0 1 6-6h488a6 6 0 0 1 6 6v268a6 6 0 0 1-6 6H-4a6 6 0 0 1-6-6z" stroke="#282c33" stroke-width="2" fill="#ffdda6"/><use xlink:href="#g" transform="matrix(1,0,0,1,2,212) translate(104.0648148148149 138.66666666666666)"/><path d="M-10 506a6 6 0 0 1 6-6h488a6 6 0 0 1 6 6v88a6 6 0 0 1-6 6H-4a6 6 0 0 1-6-6z" stroke="#282c33" stroke-width="2" fill="#c3f7c8"/><use xlink:href="#f" transform="matrix(1,0,0,1,2,512) translate(189.94444444444446 45.66666666666666)"/><path d="M640 86a6 6 0 0 1 6-6h628a6 6 0 0 1 6 6v548a6 6 0 0 1-6 6H646a6 6 0 0 1-6-6z" stroke="#282c33" stroke-width="2" fill="#1071e5"/><use xlink:href="#a" transform="matrix(1,0,0,1,652,92) translate(276.51851851851853 26.666666666666657)"/><path d="M680 146a6 6 0 0 1 6-6h548a6 6 0 0 1 6 6v468a6 6 0 0 1-6 6H686a6 6 0 0 1-6-6z" stroke="#282c33" stroke-width="2" fill="#008a0e"/><use xlink:href="#b" transform="matrix(1,0,0,1,692,152) translate(145.87037037037044 26.666666666666657)"/><use xlink:href="#c" transform="matrix(1,0,0,1,692,152) translate(255.03703703703707 26.666666666666657)"/><path d="M710 206a6 6 0 0 1 6-6h488a6 6 0 0 1 6 6v268a6 6 0 0 1-6 6H716a6 6 0 0 1-6-6z" stroke="#282c33" stroke-width="2" fill="#ffdda6"/><use xlink:href="#h" transform="matrix(1,0,0,1,722,212) translate(159.5277777777778 138.66666666666666)"/><path d="M710 506a6 6 0 0 1 6-6h488a6 6 0 0 1 6 6v88a6 6 0 0 1-6 6H716a6 6 0 0 1-6-6z" stroke="#282c33" stroke-width="2" fill="#c3f7c8"/><use xlink:href="#f" transform="matrix(1,0,0,1,722,512) translate(189.94444444444446 45.66666666666666)"/><path d="M960 76.5V25.86" stroke="#3a414a" stroke-width="5" fill="none"/><path d="M962.48 79h-4.96v-2.56h4.96z" stroke="#3a414a" stroke-width=".05" fill="#3a414a"/><path d="M960 9.1l4.63 14.26h-9.26z" stroke="#3a414a" stroke-width="5" fill="#3a414a"/><path d="M636.5 360h-50.64" stroke="#3a414a" stroke-width="5" fill="none"/><path d="M639 362.48h-2.56v-4.96H639z" stroke="#3a414a" stroke-width=".05" fill="#3a414a"/><path d="M569.1 360l14.26-4.63v9.26z" stroke="#3a414a" stroke-width="5" fill="#3a414a"/><path d="M1283.5 360h49.64" stroke="#3a414a" stroke-width="5" fill="none"/><path d="M1283.56 362.48H1281v-4.96h2.56z" stroke="#3a414a" stroke-width=".05" fill="#3a414a"/><path d="M1349.9 360l-14.26 4.63v-9.26z" stroke="#3a414a" stroke-width="5" fill="#3a414a"/><path d="M640 726a6 6 0 0 1 6-6h628a6 6 0 0 1 6 6v548a6 6 0 0 1-6 6H646a6 6 0 0 1-6-6z" stroke="#282c33" stroke-width="2" fill="#1071e5"/><use xlink:href="#a" transform="matrix(1,0,0,1,652,732) translate(276.51851851851853 26.666666666666657)"/><path d="M680 786a6 6 0 0 1 6-6h548a6 6 0 0 1 6 6v468a6 6 0 0 1-6 6H686a6 6 0 0 1-6-6z" stroke="#282c33" stroke-width="2" fill="#008a0e"/><use xlink:href="#b" transform="matrix(1,0,0,1,692,792) translate(145.87037037037044 26.666666666666657)"/><use xlink:href="#c" transform="matrix(1,0,0,1,692,792) translate(255.03703703703707 26.666666666666657)"/><path d="M710 846a6 6 0 0 1 6-6h488a6 6 0 0 1 6 6v268a6 6 0 0 1-6 6H716a6 6 0 0 1-6-6z" stroke="#282c33" stroke-width="2" fill="#ffdda6"/><use xlink:href="#i" transform="matrix(1,0,0,1,722,852) translate(122.62962962962966 138.66666666666666)"/><path d="M710 1146a6 6 0 0 1 6-6h488a6 6 0 0 1 6 6v88a6 6 0 0 1-6 6H716a6 6 0 0 1-6-6z" stroke="#282c33" stroke-width="2" fill="#c3f7c8"/><use xlink:href="#f" transform="matrix(1,0,0,1,722,1152) translate(189.94444444444446 45.66666666666666)"/><path d="M640 1366a6 6 0 0 1 6-6h628a6 6 0 0 1 6 6v548a6 6 0 0 1-6 6H646a6 6 0 0 1-6-6z" stroke="#282c33" stroke-width="2" fill="#1071e5"/><use xlink:href="#a" transform="matrix(1,0,0,1,652,1372) translate(276.51851851851853 26.666666666666657)"/><path d="M680 1426a6 6 0 0 1 6-6h548a6 6 0 0 1 6 6v468a6 6 0 0 1-6 6H686a6 6 0 0 1-6-6z" stroke="#282c33" stroke-width="2" fill="#008a0e"/><use xlink:href="#b" transform="matrix(1,0,0,1,692,1432) translate(145.87037037037044 26.666666666666657)"/><use xlink:href="#c" transform="matrix(1,0,0,1,692,1432) translate(255.03703703703707 26.666666666666657)"/><path d="M710 1486a6 6 0 0 1 6-6h488a6 6 0 0 1 6 6v268a6 6 0 0 1-6 6H716a6 6 0 0 1-6-6z" stroke="#282c33" stroke-width="2" fill="#ffdda6"/><use xlink:href="#j" transform="matrix(1,0,0,1,722,1492) translate(168.78703703703707 138.66666666666666)"/><path d="M710 1786a6 6 0 0 1 6-6h488a6 6 0 0 1 6 6v88a6 6 0 0 1-6 6H716a6 6 0 0 1-6-6z" stroke="#282c33" stroke-width="2" fill="#c3f7c8"/><use xlink:href="#f" transform="matrix(1,0,0,1,722,1792) translate(189.94444444444446 45.66666666666666)"/><path d="M960 716.5v-50.64" stroke="#3a414a" stroke-width="5" fill="none"/><path d="M962.48 719h-4.96v-2.56h4.96z" stroke="#3a414a" stroke-width=".05" fill="#3a414a"/><path d="M960 649.1l4.63 14.26h-9.26z" stroke="#3a414a" stroke-width="5" fill="#3a414a"/><path d="M960 1356.5v-50.64" stroke="#3a414a" stroke-width="5" fill="none"/><path d="M962.48 1359h-4.96v-2.56h4.96z" stroke="#3a414a" stroke-width=".05" fill="#3a414a"/><path d="M960 1289.1l4.63 14.26h-9.26z" stroke="#3a414a" stroke-width="5" fill="#3a414a"/><path d="M1283.5 1640H1673a6 6 0 0 0 6-6V665.86" stroke="#3a414a" stroke-width="5" fill="none"/><path d="M1283.56 1642.47H1281v-4.94h2.56z" stroke="#3a414a" stroke-width=".05" fill="#3a414a"/><path d="M1679 649.1l4.63 14.26h-9.27z" stroke="#3a414a" stroke-width="5" fill="#3a414a"/><defs><path fill="#fff" d="M106-169C34-169 62-67 57 0H25v-261h32l-1 103c12-21 28-36 61-36 89 0 53 116 60 194h-32v-121c2-32-8-49-39-48" id="k"/><path fill="#fff" d="M100-194c62-1 85 37 85 99 1 63-27 99-86 99S16-35 15-95c0-66 28-99 85-99zM99-20c44 1 53-31 53-75 0-43-8-75-51-75s-53 32-53 75 10 74 51 75" id="l"/><path fill="#fff" d="M135-143c-3-34-86-38-87 0 15 53 115 12 119 90S17 21 10-45l28-5c4 36 97 45 98 0-10-56-113-15-118-90-4-57 82-63 122-42 12 7 21 19 24 35" id="m"/><path fill="#fff" d="M59-47c-2 24 18 29 38 22v24C64 9 27 4 27-40v-127H5v-23h24l9-43h21v43h35v23H59v120" id="n"/><g id="a"><use transform="matrix(0.09259259259259256,0,0,0.09259259259259256,0,0)" xlink:href="#k"/><use transform="matrix(0.09259259259259256,0,0,0.09259259259259256,18.518518518518512,0)" xlink:href="#l"/><use transform="matrix(0.09259259259259256,0,0,0.09259259259259256,37.037037037037024,0)" xlink:href="#m"/><use transform="matrix(0.09259259259259256,0,0,0.09259259259259256,53.70370370370368,0)" xlink:href="#n"/></g><path fill="#fff" d="M85-194c31 0 48 13 60 33l-1-100h32l1 261h-30c-2-10 0-23-3-31C134-8 116 4 85 4 32 4 16-35 15-94c0-66 23-100 70-100zm9 24c-40 0-46 34-46 75 0 40 6 74 45 74 42 0 51-32 51-76 0-42-9-74-50-73" id="o"/><path fill="#fff" d="M96-169c-40 0-48 33-48 73s9 75 48 75c24 0 41-14 43-38l32 2c-6 37-31 61-74 61-59 0-76-41-82-99-10-93 101-131 147-64 4 7 5 14 7 22l-32 3c-4-21-16-35-41-35" id="p"/><path fill="#fff" d="M143 0L79-87 56-68V0H24v-261h32v163l83-92h37l-77 82L181 0h-38" id="q"/><path fill="#fff" d="M100-194c63 0 86 42 84 106H49c0 40 14 67 53 68 26 1 43-12 49-29l28 8c-11 28-37 45-77 45C44 4 14-33 15-96c1-61 26-98 85-98zm52 81c6-60-76-77-97-28-3 7-6 17-6 28h103" id="r"/><path fill="#fff" d="M114-163C36-179 61-72 57 0H25l-1-190h30c1 12-1 29 2 39 6-27 23-49 58-41v29" id="s"/><g id="b"><use transform="matrix(0.09259259259259256,0,0,0.09259259259259256,0,0)" xlink:href="#o"/><use transform="matrix(0.09259259259259256,0,0,0.09259259259259256,18.518518518518512,0)" xlink:href="#l"/><use transform="matrix(0.09259259259259256,0,0,0.09259259259259256,37.037037037037024,0)" xlink:href="#p"/><use transform="matrix(0.09259259259259256,0,0,0.09259259259259256,53.70370370370368,0)" xlink:href="#q"/><use transform="matrix(0.09259259259259256,0,0,0.09259259259259256,70.37037037037034,0)" xlink:href="#r"/><use transform="matrix(0.09259259259259256,0,0,0.09259259259259256,88.88888888888886,0)" xlink:href="#s"/></g><path fill="#fff" d="M210-169c-67 3-38 105-44 169h-31v-121c0-29-5-50-35-48C34-165 62-65 56 0H25l-1-190h30c1 10-1 24 2 32 10-44 99-50 107 0 11-21 27-35 58-36 85-2 47 119 55 194h-31v-121c0-29-5-49-35-48" id="t"/><path fill="#fff" d="M115-194c55 1 70 41 70 98S169 2 115 4C84 4 66-9 55-30l1 105H24l-1-265h31l2 30c10-21 28-34 59-34zm-8 174c40 0 45-34 45-75s-6-73-45-74c-42 0-51 32-51 76 0 43 10 73 51 73" id="u"/><g id="c"><use transform="matrix(0.09259259259259256,0,0,0.09259259259259256,0,0)" xlink:href="#p"/><use transform="matrix(0.09259259259259256,0,0,0.09259259259259256,16.66666666666666,0)" xlink:href="#l"/><use transform="matrix(0.09259259259259256,0,0,0.09259259259259256,35.185185185185176,0)" xlink:href="#t"/><use transform="matrix(0.09259259259259256,0,0,0.09259259259259256,62.870370370370345,0)" xlink:href="#u"/><use transform="matrix(0.09259259259259256,0,0,0.09259259259259256,81.38888888888886,0)" xlink:href="#l"/><use transform="matrix(0.09259259259259256,0,0,0.09259259259259256,99.90740740740738,0)" xlink:href="#m"/><use transform="matrix(0.09259259259259256,0,0,0.09259259259259256,116.574074074074,0)" xlink:href="#r"/></g><path fill="#3a414a" d="M88-194c31-1 46 15 58 34l-1-101h50l1 261h-48c-2-10 0-23-3-31C134-8 116 4 84 4 32 4 16-41 15-95c0-56 19-97 73-99zm17 164c33 0 40-30 41-66 1-37-9-64-41-64s-38 30-39 65c0 43 13 65 39 65" id="v"/><path fill="#3a414a" d="M110-194c64 0 96 36 96 99 0 64-35 99-97 99-61 0-95-36-95-99 0-62 34-99 96-99zm-1 164c35 0 45-28 45-65 0-40-10-65-43-65-34 0-45 26-45 65 0 36 10 65 43 65" id="w"/><path fill="#3a414a" d="M25 0v-261h50V0H25" id="x"/><path fill="#3a414a" d="M115-3C79 11 28 4 28-45v-112H4v-33h27l15-45h31v45h36v33H77v99c-1 23 16 31 38 25v30" id="y"/><path fill="#3a414a" d="M133-34C117-15 103 5 69 4 32 3 11-16 11-54c-1-60 55-63 116-61 1-26-3-47-28-47-18 1-26 9-28 27l-52-2c7-38 36-58 82-57s74 22 75 68l1 82c-1 14 12 18 25 15v27c-30 8-71 5-69-32zm-48 3c29 0 43-24 42-57-32 0-66-3-65 30 0 17 8 27 23 27" id="z"/><path fill="#3a414a" d="M135-194c52 0 70 43 70 98 0 56-19 99-73 100-30 1-46-15-58-35L72 0H24l1-261h50v104c11-23 29-37 60-37zM114-30c31 0 40-27 40-66 0-37-7-63-39-63s-41 28-41 65c0 36 8 64 40 64" id="A"/><g id="d"><use transform="matrix(0.09259259259259256,0,0,0.09259259259259256,0,0)" xlink:href="#v"/><use transform="matrix(0.09259259259259256,0,0,0.09259259259259256,20.27777777777777,0)" xlink:href="#w"/><use transform="matrix(0.09259259259259256,0,0,0.09259259259259256,40.55555555555554,0)" xlink:href="#x"/><use transform="matrix(0.09259259259259256,0,0,0.09259259259259256,49.814814814814795,0)" xlink:href="#y"/><use transform="matrix(0.09259259259259256,0,0,0.09259259259259256,60.833333333333314,0)" xlink:href="#x"/><use transform="matrix(0.09259259259259256,0,0,0.09259259259259256,70.09259259259257,0)" xlink:href="#z"/><use transform="matrix(0.09259259259259256,0,0,0.09259259259259256,88.61111111111109,0)" xlink:href="#A"/><use transform="matrix(0.09259259259259256,0,0,0.09259259259259256,108.88888888888886,0)" xlink:href="#v"/><use transform="matrix(0.09259259259259256,0,0,0.09259259259259256,129.16666666666663,0)" xlink:href="#A"/></g><path fill="#3a414a" d="M121-226c-27-7-43 5-38 36h38v33H83V0H34v-157H6v-33h28c-9-59 32-81 87-68v32" id="B"/><path fill="#3a414a" d="M25-224v-37h50v37H25zM25 0v-190h50V0H25" id="C"/><path fill="#3a414a" d="M185-48c-13 30-37 53-82 52C43 2 14-33 14-96s30-98 90-98c62 0 83 45 84 108H66c0 31 8 55 39 56 18 0 30-7 34-22zm-45-69c5-46-57-63-70-21-2 6-4 13-4 21h74" id="D"/><path fill="#3a414a" d="M137-138c1-29-70-34-71-4 15 46 118 7 119 86 1 83-164 76-172 9l43-7c4 19 20 25 44 25 33 8 57-30 24-41C81-84 22-81 20-136c-2-80 154-74 161-7" id="E"/><path fill="#3a414a" d="M135-150c-39-12-60 13-60 57V0H25l-1-190h47c2 13-1 29 3 40 6-28 27-53 61-41v41" id="F"/><path fill="#3a414a" d="M128 0H69L1-190h53L99-40l48-150h52" id="G"/><path fill="#3a414a" d="M190-63c-7 42-38 67-86 67-59 0-84-38-90-98-12-110 154-137 174-36l-49 2c-2-19-15-32-35-32-30 0-35 28-38 64-6 74 65 87 74 30" id="H"/><path fill="#3a414a" d="M135-194c53 0 70 44 70 98 0 56-19 98-73 100-31 1-45-17-59-34 3 33 2 69 2 105H25l-1-265h48c2 10 0 23 3 31 11-24 29-35 60-35zM114-30c33 0 39-31 40-66 0-38-9-64-40-64-56 0-55 130 0 130" id="I"/><g id="e"><use transform="matrix(0.09259259259259256,0,0,0.09259259259259256,0,0)" xlink:href="#v"/><use transform="matrix(0.09259259259259256,0,0,0.09259259259259256,20.27777777777777,0)" xlink:href="#w"/><use transform="matrix(0.09259259259259256,0,0,0.09259259259259256,40.55555555555554,0)" xlink:href="#x"/><use transform="matrix(0.09259259259259256,0,0,0.09259259259259256,49.814814814814795,0)" xlink:href="#y"/><use transform="matrix(0.09259259259259256,0,0,0.09259259259259256,60.833333333333314,0)" xlink:href="#x"/><use transform="matrix(0.09259259259259256,0,0,0.09259259259259256,70.09259259259257,0)" xlink:href="#z"/><use transform="matrix(0.09259259259259256,0,0,0.09259259259259256,88.61111111111109,0)" xlink:href="#A"/><use transform="matrix(0.09259259259259256,0,0,0.09259259259259256,108.88888888888886,0)" xlink:href="#B"/><use transform="matrix(0.09259259259259256,0,0,0.09259259259259256,119.90740740740739,0)" xlink:href="#C"/><use transform="matrix(0.09259259259259256,0,0,0.09259259259259256,129.16666666666663,0)" xlink:href="#x"/><use transform="matrix(0.09259259259259256,0,0,0.09259259259259256,138.4259259259259,0)" xlink:href="#D"/><use transform="matrix(0.09259259259259256,0,0,0.09259259259259256,156.9444444444444,0)" xlink:href="#E"/><use transform="matrix(0.09259259259259256,0,0,0.09259259259259256,175.4629629629629,0)" xlink:href="#D"/><use transform="matrix(0.09259259259259256,0,0,0.09259259259259256,193.9814814814814,0)" xlink:href="#F"/><use transform="matrix(0.09259259259259256,0,0,0.09259259259259256,206.94444444444437,0)" xlink:href="#G"/><use transform="matrix(0.09259259259259256,0,0,0.09259259259259256,225.46296296296288,0)" xlink:href="#C"/><use transform="matrix(0.09259259259259256,0,0,0.09259259259259256,234.72222222222214,0)" xlink:href="#H"/><use transform="matrix(0.09259259259259256,0,0,0.09259259259259256,253.24074074074065,0)" xlink:href="#D"/><use transform="matrix(0.09259259259259256,0,0,0.09259259259259256,271.7592592592592,0)" xlink:href="#z"/><use transform="matrix(0.09259259259259256,0,0,0.09259259259259256,290.2777777777777,0)" xlink:href="#I"/><use transform="matrix(0.09259259259259256,0,0,0.09259259259259256,310.5555555555555,0)" xlink:href="#C"/></g><path fill="#3a414a" d="M135-194c87-1 58 113 63 194h-50c-7-57 23-157-34-157-59 0-34 97-39 157H25l-1-190h47c2 12-1 28 3 38 12-26 28-41 61-42" id="J"/><path fill="#3a414a" d="M123 10C108 53 80 86 19 72V37c35 8 53-11 59-39L3-190h52l48 148c12-52 28-100 44-148h51" id="K"/><g id="f"><use transform="matrix(0.09259259259259256,0,0,0.09259259259259256,0,0)" xlink:href="#D"/><use transform="matrix(0.09259259259259256,0,0,0.09259259259259256,18.518518518518512,0)" xlink:href="#J"/><use transform="matrix(0.09259259259259256,0,0,0.09259259259259256,38.79629629629628,0)" xlink:href="#G"/><use transform="matrix(0.09259259259259256,0,0,0.09259259259259256,57.314814814814795,0)" xlink:href="#w"/><use transform="matrix(0.09259259259259256,0,0,0.09259259259259256,77.59259259259257,0)" xlink:href="#K"/></g><path fill="#3a414a" d="M220-157c-53 9-28 100-34 157h-49v-107c1-27-5-49-29-50C55-147 81-57 75 0H25l-1-190h47c2 12-1 28 3 38 10-53 101-56 108 0 13-22 24-43 59-42 82 1 51 116 57 194h-49v-107c-1-25-5-48-29-50" id="L"/><g id="g"><use transform="matrix(0.09259259259259256,0,0,0.09259259259259256,0,0)" xlink:href="#v"/><use transform="matrix(0.09259259259259256,0,0,0.09259259259259256,20.27777777777777,0)" xlink:href="#w"/><use transform="matrix(0.09259259259259256,0,0,0.09259259259259256,40.55555555555554,0)" xlink:href="#x"/><use transform="matrix(0.09259259259259256,0,0,0.09259259259259256,49.814814814814795,0)" xlink:href="#y"/><use transform="matrix(0.09259259259259256,0,0,0.09259259259259256,60.833333333333314,0)" xlink:href="#x"/><use transform="matrix(0.09259259259259256,0,0,0.09259259259259256,70.09259259259257,0)" xlink:href="#z"/><use transform="matrix(0.09259259259259256,0,0,0.09259259259259256,88.61111111111109,0)" xlink:href="#A"/><use transform="matrix(0.09259259259259256,0,0,0.09259259259259256,108.88888888888886,0)" xlink:href="#F"/><use transform="matrix(0.09259259259259256,0,0,0.09259259259259256,121.85185185185183,0)" xlink:href="#D"/><use transform="matrix(0.09259259259259256,0,0,0.09259259259259256,140.37037037037032,0)" xlink:href="#L"/><use transform="matrix(0.09259259259259256,0,0,0.09259259259259256,169.99999999999994,0)" xlink:href="#w"/><use transform="matrix(0.09259259259259256,0,0,0.09259259259259256,190.27777777777771,0)" xlink:href="#y"/><use transform="matrix(0.09259259259259256,0,0,0.09259259259259256,201.29629629629622,0)" xlink:href="#D"/><use transform="matrix(0.09259259259259256,0,0,0.09259259259259256,219.81481481481472,0)" xlink:href="#z"/><use transform="matrix(0.09259259259259256,0,0,0.09259259259259256,238.33333333333326,0)" xlink:href="#I"/><use transform="matrix(0.09259259259259256,0,0,0.09259259259259256,258.611111111111,0)" xlink:href="#C"/></g><g id="h"><use transform="matrix(0.09259259259259256,0,0,0.09259259259259256,0,0)" xlink:href="#v"/><use transform="matrix(0.09259259259259256,0,0,0.09259259259259256,20.27777777777777,0)" xlink:href="#w"/><use transform="matrix(0.09259259259259256,0,0,0.09259259259259256,40.55555555555554,0)" xlink:href="#x"/><use transform="matrix(0.09259259259259256,0,0,0.09259259259259256,49.814814814814795,0)" xlink:href="#y"/><use transform="matrix(0.09259259259259256,0,0,0.09259259259259256,60.833333333333314,0)" xlink:href="#x"/><use transform="matrix(0.09259259259259256,0,0,0.09259259259259256,70.09259259259257,0)" xlink:href="#z"/><use transform="matrix(0.09259259259259256,0,0,0.09259259259259256,88.61111111111109,0)" xlink:href="#A"/><use transform="matrix(0.09259259259259256,0,0,0.09259259259259256,108.88888888888886,0)" xlink:href="#z"/><use transform="matrix(0.09259259259259256,0,0,0.09259259259259256,127.40740740740736,0)" xlink:href="#I"/><use transform="matrix(0.09259259259259256,0,0,0.09259259259259256,147.68518518518513,0)" xlink:href="#C"/></g><path fill="#3a414a" d="M195-6C206 82 75 100 31 46c-4-6-6-13-8-21l49-6c3 16 16 24 34 25 40 0 42-37 40-79-11 22-30 35-61 35-53 0-70-43-70-97 0-56 18-96 73-97 30 0 46 14 59 34l2-30h47zm-90-29c32 0 41-27 41-63 0-35-9-62-40-62-32 0-39 29-40 63 0 36 9 62 39 62" id="M"/><path fill="#3a414a" d="M114-157C55-157 80-60 75 0H25v-261h50l-1 109c12-26 28-41 61-42 86-1 58 113 63 194h-50c-7-57 23-157-34-157" id="N"/><path fill="#3a414a" d="M84 4C32 4 15-41 15-95c0-55 18-99 73-99 29 0 47 12 58 34l2-30h48l-1 265h-49V-32C136-9 114 4 84 4zm21-34c32 0 41-29 41-66 0-36-9-64-40-64-33 0-39 30-40 65 0 43 13 65 39 65" id="O"/><g id="i"><use transform="matrix(0.09259259259259256,0,0,0.09259259259259256,0,0)" xlink:href="#v"/><use transform="matrix(0.09259259259259256,0,0,0.09259259259259256,20.27777777777777,0)" xlink:href="#w"/><use transform="matrix(0.09259259259259256,0,0,0.09259259259259256,40.55555555555554,0)" xlink:href="#x"/><use transform="matrix(0.09259259259259256,0,0,0.09259259259259256,49.814814814814795,0)" xlink:href="#y"/><use transform="matrix(0.09259259259259256,0,0,0.09259259259259256,60.833333333333314,0)" xlink:href="#x"/><use transform="matrix(0.09259259259259256,0,0,0.09259259259259256,70.09259259259257,0)" xlink:href="#z"/><use transform="matrix(0.09259259259259256,0,0,0.09259259259259256,88.61111111111109,0)" xlink:href="#A"/><use transform="matrix(0.09259259259259256,0,0,0.09259259259259256,108.88888888888886,0)" xlink:href="#M"/><use transform="matrix(0.09259259259259256,0,0,0.09259259259259256,129.16666666666663,0)" xlink:href="#F"/><use transform="matrix(0.09259259259259256,0,0,0.09259259259259256,142.1296296296296,0)" xlink:href="#z"/><use transform="matrix(0.09259259259259256,0,0,0.09259259259259256,160.6481481481481,0)" xlink:href="#I"/><use transform="matrix(0.09259259259259256,0,0,0.09259259259259256,180.92592592592587,0)" xlink:href="#N"/><use transform="matrix(0.09259259259259256,0,0,0.09259259259259256,201.20370370370364,0)" xlink:href="#O"/><use transform="matrix(0.09259259259259256,0,0,0.09259259259259256,221.4814814814814,0)" xlink:href="#x"/></g><path fill="#3a414a" d="M85 4C-2 5 27-109 22-190h50c7 57-23 150 33 157 60-5 35-97 40-157h50l1 190h-47c-2-12 1-28-3-38-12 25-28 42-61 42" id="P"/><g id="j"><use transform="matrix(0.09259259259259256,0,0,0.09259259259259256,0,0)" xlink:href="#v"/><use transform="matrix(0.09259259259259256,0,0,0.09259259259259256,20.27777777777777,0)" xlink:href="#w"/><use transform="matrix(0.09259259259259256,0,0,0.09259259259259256,40.55555555555554,0)" xlink:href="#x"/><use transform="matrix(0.09259259259259256,0,0,0.09259259259259256,49.814814814814795,0)" xlink:href="#y"/><use transform="matrix(0.09259259259259256,0,0,0.09259259259259256,60.833333333333314,0)" xlink:href="#x"/><use transform="matrix(0.09259259259259256,0,0,0.09259259259259256,70.09259259259257,0)" xlink:href="#z"/><use transform="matrix(0.09259259259259256,0,0,0.09259259259259256,88.61111111111109,0)" xlink:href="#A"/><use transform="matrix(0.09259259259259256,0,0,0.09259259259259256,108.88888888888886,0)" xlink:href="#P"/><use transform="matrix(0.09259259259259256,0,0,0.09259259259259256,129.16666666666663,0)" xlink:href="#C"/></g></defs></g></svg>